# xmcd
#
# Track frame offsets:
#	150
#	16792
#	36377
#	50945
#	69182
#	82927
#	96922
#	112395
#	127755
#	147687
#
# Disc length: 2229 seconds
#
# Revision: 0
# Processed by: cddbd v1.5PL3 Copyright (c) Steve Scherf et al.
# Submitted via: dBpowerAMP V4.0
#
DISCID=8c08b30a
DTITLE=Taylor, Alex - Voodoo in me
DYEAR=1900
DGENRE=Blues
TTITLE0=Voodoo in you
TTITLE1=He will break your heart
TTITLE2=Tequila quicksand
TTITLE3=Catch me when I fall
TTITLE4=Smokin' at the gas pump
TTITLE5=Vanessa
TTITLE6=Graveyard dogs
TTITLE7=You got a way with me
TTITLE8=Time on the inside
TTITLE9=North Carolina
EXTD=
EXTT0=
EXTT1=
EXTT2=
EXTT3=
EXTT4=
EXTT5=
EXTT6=
EXTT7=
EXTT8=
EXTT9=
PLAYORDER=
